# xmcd CD database file
#
# Track frame offsets:
#	150
#	19755
#	39768
#	58531
#	78704
#	95824
#	124194
#	146024
#	171984
#	193694
#	217057
#	240762
#	263694
#
# Disc length: 3902 seconds
#
# Revision: 11
# Processed by: cddbd v1.5.1PL2 Copyright (c) Steve Scherf et al.
# Submitted via: CDex 1.51
#
DISCID=b40f3c0d
DTITLE=?? ?? - ?????????? 1986-1991
DYEAR=2000
DGENRE=New Age
TTITLE0=???? ???
TTITLE1=?????
TTITLE2=BIRDS
TTITLE3=??????
TTITLE4=??????
TTITLE5=??????
TTITLE6=??
TTITLE7=Myself????????
TTITLE8=?????
TTITLE9=?????Radio
TTITLE10=Wednesday Moon
TTITLE11=LOVE IS ALL
TTITLE12=Revolution
EXTD=YEAR: 2000
EXTT0=
EXTT1=
EXTT2=
EXTT3=
EXTT4=
EXTT5=
EXTT6=
EXTT7=
EXTT8=
EXTT9=
EXTT10=
EXTT11=
EXTT12=
PLAYORDER=
